<svg width="31" height="27" viewBox="0 0 31 27" fill="none" xmlns="http://www.w3.org/2000/svg">
<path d="M8.54957 0.380859C4.68207 0.380859 0.916656 3.04815 0.916656 7.93065C0.916656 13.3629 7.25312 19.1992 14.4835 26.2182C14.7664 26.4938 15.1339 26.6309 15.5 26.6309C15.866 26.6309 16.2335 26.4938 16.5164 26.2182C23.7746 19.1729 30.0833 13.3644 30.0833 7.93065C30.0833 3.04086 26.3208 0.393984 22.4577 0.393984C19.7802 0.393984 17.1406 1.6569 15.5 4.11857C13.8521 1.64523 11.2198 0.380859 8.54957 0.380859ZM8.54957 2.56836C11.4517 2.56982 13.2192 4.54148 14.6089 6.50586C14.8131 6.79461 15.1456 6.96669 15.5 6.96815C15.8544 6.96815 16.1869 6.79753 16.3925 6.51023C17.7852 4.55753 19.5862 2.58148 22.4577 2.58148C25.0769 2.58148 27.8958 4.25565 27.8958 7.93065C27.8958 11.8259 23.6944 16.2038 15.5 24.1575C7.54624 16.4502 3.10416 11.9236 3.10416 7.93065C3.10416 6.29003 3.67145 4.91336 4.74332 3.95378C5.72478 3.07294 7.11312 2.56836 8.54957 2.56836Z" fill="#585858"/>
</svg>
