<svg width="35" height="25" viewBox="0 0 35 25" fill="none" xmlns="http://www.w3.org/2000/svg">
<path d="M14.7569 18.4267C18.1008 17.6538 21.2129 16.9771 19.7065 14.1304C15.1171 5.46647 18.4888 0.833344 23.3348 0.833344C28.2756 0.833344 31.5642 5.64439 26.9631 14.1319C25.41 16.9961 28.6388 17.6713 31.9113 18.4281C34.806 19.0961 35 20.5106 35 22.9592L34.9956 24.1667H33.0575C33.0575 21.1202 33.1785 20.7148 31.2696 20.2744C28.4973 19.6356 25.881 19.0319 24.9244 16.9144C24.5758 16.1415 24.3483 14.8698 25.254 13.2058C27.2548 9.51334 27.7608 6.31376 26.6379 4.43105C25.3225 2.21876 21.3631 2.23043 20.0579 4.39897C18.9379 6.25543 19.4367 9.47251 21.4229 13.2219C22.3081 14.8931 22.0748 16.1619 21.7233 16.9304C20.7608 19.0377 18.1183 19.6473 15.3212 20.2919C13.4954 20.7148 13.6121 21.1494 13.6121 24.1667H11.671C11.671 20.9642 11.4144 19.1996 14.7569 18.4267ZM0.00291667 24.1667H1.94104C1.94104 21.3696 1.66979 22.1469 4.60104 21.2894C6.07979 20.8592 7.38646 20.235 7.97854 18.9386C8.28771 18.2633 8.49625 17.1594 7.74229 15.7346C6.35396 13.1125 5.96458 10.8142 6.70396 9.58772C7.50167 8.26209 10.0144 8.26355 10.815 9.60959C12.1785 11.8948 9.65854 15.4167 9.3275 16.875H11.3633C12.005 15.4167 13.1221 13.655 13.1221 11.1875C13.1221 8.25626 11.2088 6.66668 8.75 6.66668C5.11438 6.66668 2.58562 10.1419 6.02875 16.6402C7.1575 18.7752 4.82417 19.2827 2.31729 19.8617C0.144375 20.3648 0 21.425 0 23.2654L0.00291667 24.1667Z" fill="#585858"/>
</svg>
